<svg width="37" height="35" viewBox="0 0 37 35" fill="none" xmlns="http://www.w3.org/2000/svg">
<ellipse cx="18.5" cy="17.5" rx="18.5" ry="17.5" fill="#A71111"/>
<path d="M9.33984 11.4805V16.7148H12.25C13.0052 16.7148 13.5098 16.6009 13.7637 16.373C14.1022 16.0736 14.291 15.5462 14.3301 14.791H14.6914V19.4004H14.3301C14.2389 18.7559 14.1478 18.3424 14.0566 18.1602C13.9395 17.9323 13.7474 17.7533 13.4805 17.623C13.2135 17.4928 12.8034 17.4277 12.25 17.4277H9.33984V21.793C9.33984 22.3789 9.36589 22.737 9.41797 22.8672C9.47005 22.9909 9.5612 23.0918 9.69141 23.1699C9.82161 23.2415 10.069 23.2773 10.4336 23.2773H12.6797C13.4284 23.2773 13.972 23.2253 14.3105 23.1211C14.6491 23.0169 14.9746 22.8118 15.2871 22.5059C15.6908 22.1022 16.1042 21.4935 16.5273 20.6797H16.918L15.7754 24H5.57031V23.6387H6.03906C6.35156 23.6387 6.64779 23.5638 6.92773 23.4141C7.13607 23.3099 7.27604 23.1536 7.34766 22.9453C7.42578 22.737 7.46484 22.3105 7.46484 21.666V13.0625C7.46484 12.2227 7.38021 11.7051 7.21094 11.5098C6.97656 11.2493 6.58594 11.1191 6.03906 11.1191H5.57031V10.7578H15.7754L15.9219 13.6582H15.541C15.4043 12.9616 15.2513 12.4831 15.082 12.2227C14.9193 11.9622 14.6751 11.7637 14.3496 11.627C14.0892 11.5293 13.6302 11.4805 12.9727 11.4805H9.33984ZM21.498 16.9004H27.6504V13.1113C27.6504 12.4342 27.6081 11.9883 27.5234 11.7734C27.4583 11.6107 27.3216 11.4707 27.1133 11.3535C26.8333 11.1973 26.5371 11.1191 26.2246 11.1191H25.7559V10.7578H31.4199V11.1191H30.9512C30.6387 11.1191 30.3424 11.194 30.0625 11.3438C29.8542 11.4479 29.7109 11.6074 29.6328 11.8223C29.5612 12.0306 29.5254 12.4603 29.5254 13.1113V21.6562C29.5254 22.3268 29.5677 22.7695 29.6523 22.9844C29.7174 23.1471 29.8509 23.2871 30.0527 23.4043C30.3392 23.5605 30.6387 23.6387 30.9512 23.6387H31.4199V24H25.7559V23.6387H26.2246C26.765 23.6387 27.1589 23.4792 27.4062 23.1602C27.569 22.9518 27.6504 22.4505 27.6504 21.6562V17.623H21.498V21.6562C21.498 22.3268 21.5404 22.7695 21.625 22.9844C21.6901 23.1471 21.8268 23.2871 22.0352 23.4043C22.3151 23.5605 22.6113 23.6387 22.9238 23.6387H23.4023V24H17.7285V23.6387H18.1973C18.7441 23.6387 19.1413 23.4792 19.3887 23.1602C19.5449 22.9518 19.623 22.4505 19.623 21.6562V13.1113C19.623 12.4342 19.5807 11.9883 19.4961 11.7734C19.431 11.6107 19.2975 11.4707 19.0957 11.3535C18.8092 11.1973 18.5098 11.1191 18.1973 11.1191H17.7285V10.7578H23.4023V11.1191H22.9238C22.6113 11.1191 22.3151 11.194 22.0352 11.3438C21.8333 11.4479 21.6934 11.6074 21.6152 11.8223C21.5371 12.0306 21.498 12.4603 21.498 13.1113V16.9004Z" fill="white"/>
</svg>
